<?xml version="1.0" standalone="no"?><!DOCTYPE svg PUBLIC "-//W3C//DTD SVG 1.1//EN" "http://www.w3.org/Graphics/SVG/1.1/DTD/svg11.dtd"><svg t="1634647852947" class="icon" viewBox="0 0 1024 1024" version="1.1" xmlns="http://www.w3.org/2000/svg" p-id="5126" xmlns:xlink="http://www.w3.org/1999/xlink" width="200" height="200"><defs><style type="text/css"></style></defs><path d="M253.62432 0A130.74432 130.74432 0 0 0 122.88 130.74432v726.91712a130.74432 130.74432 0 0 0 207.17568 106.0864l504.29952-363.47904a130.74432 130.74432 0 0 0 0-212.13184L330.05568 24.69888A130.74432 130.74432 0 0 0 253.62432 0z m0 108.1344c4.75136 0 9.37984 1.47456 13.23008 4.25984l504.25856 363.47904a22.60992 22.60992 0 0 1 0 36.6592L266.8544 876.01152a22.60992 22.60992 0 0 1-35.84-18.35008V130.74432c0-12.4928 10.11712-22.60992 22.60992-22.60992z" fill="#3190FF" p-id="5127"></path></svg>